<svg width="304" height="70" viewBox="0 0 304 70" fill="none" xmlns="http://www.w3.org/2000/svg">
<path d="M82.5 69.0996H0V64.9004H82.5V69.0996Z" fill="white"/>
<path d="M12.9668 7.40039H19.3662V11.5996H12.9668V22.3584L21.4668 27.8574V40.2061L38.7666 32.1602V28.5996H35.3662V24.4004H38.7666V20H42.9658V24.4004H46.3662V28.5996H42.9658V32.1865L61.3799 41.1699L70.8916 36.665L81.9668 42.2021V61.5H77.7666V44.7979L70.8408 41.335L63.4658 44.8281V61.5H59.2666V44.8125L40.8438 35.8262L21.4658 44.8389V61H17.2656L17.2666 30.1416L10.8662 26L4.46582 30.1406V61H0.265625L0.266602 27.8574L8.7666 22.3574V11.5996H2.36621V7.40039H8.7666V0H12.9668V7.40039Z" fill="white"/>
<path d="M12.9658 61H8.76562L8.7666 32H12.9668L12.9658 61Z" fill="white"/>
<path d="M293.789 24.3812V28.7161H266.383V24.3812H277.728V19H282.444V24.3812H293.789ZM298.878 19.4484H303.5V62H298.878V19.4484ZM282.444 55.0742H282.49C287.953 55.0742 292.715 54.5759 295.563 53.1808V57.6651C293.042 58.861 288.14 59.4589 282.537 59.4589H266.196V55.0742H277.821V48.7462C272.032 48.0985 268.484 44.9594 268.484 40.1263C268.484 34.6953 273.013 31.3071 280.156 31.3071C287.299 31.3071 291.828 34.6953 291.828 40.1263C291.828 44.9594 288.233 48.1483 282.444 48.7961V55.0742ZM272.872 40.1263C272.872 42.8169 275.347 44.8598 280.156 44.8598C284.965 44.8598 287.439 42.8169 287.439 40.1263C287.439 37.4357 284.965 35.343 280.156 35.343C275.347 35.343 272.872 37.4357 272.872 40.1263Z" fill="white"/>
<path d="M256.162 49.0452V25.5272H226.001V20.9432H260.877V49.0452H256.162ZM248.505 55.423H263.445V59.9571H223.62V55.423H231.37V38.3326H235.993V55.423H243.836V38.3326H248.505V55.423Z" fill="white"/>
<path d="M218.255 19.4484V51.0382H213.633V19.4484H218.255ZM195.518 35.1935C192.763 40.4751 188.001 43.9629 182.072 44.6106V40.0765C188.795 39.0799 193.043 33.1008 193.51 24.8297H182.585V20.5446H208.404V24.8297H198.132C198.086 27.022 197.712 29.1147 197.199 31.0081L209.571 40.6246L207.003 44.2619L195.518 35.1935ZM189.122 56.9675H219.329V61.4519H184.453V47.8992H189.122V56.9675Z" fill="white"/>
<path d="M174.559 30.5597H180.162V35.2932H174.559V51.1877H169.937V19.4484H174.559V30.5597ZM167.042 43.365C164.568 44.511 159.759 45.2584 154.109 45.2584H139.87V20.4948H164.194V24.6802H144.445V30.8088H163.4V34.8447H144.445V41.073H154.483C159.899 41.073 164.474 40.3754 167.042 39.2294V43.365ZM145.892 49.1947V57.0672H175.633V61.4519H141.223V49.1947H145.892Z" fill="white"/>
<path d="M133.104 19.4484V51.0382H128.482V19.4484H133.104ZM109.9 34.6454C106.911 39.9768 102.243 43.8134 96.5 44.6106V39.9768C104.064 38.5319 108.732 29.7624 108.826 19.847L113.448 20.146C113.448 23.7833 112.841 27.321 111.72 30.5098L124.513 40.5747L121.758 44.1622L109.9 34.6454ZM103.97 57.0672H134.177V61.4519H99.3013V47.8992H103.97V57.0672Z" fill="white"/>
</svg>
